<svg width="32" height="32" viewBox="0 0 34 42" fill="none" xmlns="http://www.w3.org/2000/svg">
<path fill-rule="evenodd" clip-rule="evenodd" d="M28 41.625H6C2.96243 41.625 0.5 39.1626 0.5 36.125V5.875C0.5 2.83743 2.96243 0.375 6 0.375H23.3055C23.6701 0.375 24.0199 0.519866 24.2777 0.777728L33.0973 9.59727C33.3551 9.85513 33.5 10.2049 33.5 10.5695V36.125C33.5 39.1626 31.0376 41.625 28 41.625ZM30.75 11.375L23.875 11.375C23.1156 11.375 22.5 10.7594 22.5 10V3.125L30.75 11.375ZM7.375 19.625C7.375 18.8656 7.99061 18.25 8.75 18.25H25.25C26.0094 18.25 26.625 18.8656 26.625 19.625C26.625 20.3844 26.0094 21 25.25 21H8.75C7.99061 21 7.375 20.3844 7.375 19.625ZM8.75 26.5C7.99061 26.5 7.375 27.1156 7.375 27.875C7.375 28.6344 7.99061 29.25 8.75 29.25H25.25C26.0094 29.25 26.625 28.6344 26.625 27.875C26.625 27.1156 26.0094 26.5 25.25 26.5H8.75Z" fill="#3B4BD8"/>
</svg>
