<svg width="32" height="32" viewBox="0 0 44 37" fill="none" xmlns="http://www.w3.org/2000/svg">
<path fill-rule="evenodd" clip-rule="evenodd" d="M33.704 35.8553C34.2943 36.2628 35.0551 36.3647 35.7334 36.1145C36.4117 35.8624 36.9104 35.2976 37.0607 34.613C38.6539 27.3128 42.5184 8.83539 43.9686 2.19482C44.0786 1.69432 43.8952 1.17415 43.4919 0.83989C43.0886 0.505628 42.5294 0.409102 42.0308 0.58964C34.3438 3.36384 10.6705 12.0243 0.994373 15.5153C0.380221 15.7369 -0.0194368 16.3125 0.000729382 16.9435C0.0227289 17.5763 0.459052 18.125 1.08787 18.3091C5.42727 19.5747 11.1233 21.3354 11.1233 21.3354C11.1233 21.3354 13.7852 29.1736 15.1731 33.1597C15.3472 33.6602 15.7487 34.0535 16.2785 34.1893C16.8065 34.3234 17.3712 34.1822 17.7653 33.8193C19.9946 31.7673 23.4412 28.5944 23.4412 28.5944C23.4412 28.5944 29.9897 33.2759 33.704 35.8553ZM13.5194 20.3451L16.5975 30.2443L17.2813 23.9755C17.2813 23.9755 29.1739 13.5169 35.9534 7.55554C36.1514 7.38036 36.1789 7.08721 36.0139 6.88165C35.8507 6.67608 35.5501 6.62782 35.3246 6.76725C27.4671 11.6596 13.5194 20.3451 13.5194 20.3451Z" fill="#3B4BD8"/>
</svg>
