<svg width="106" height="62" viewBox="0 0 106 62" fill="none" xmlns="http://www.w3.org/2000/svg">
<path d="M42.0013 26.6207C42.6443 27.0258 43.1883 27.5827 43.5345 28.3422C43.9301 29.1017 44.128 30.0131 44.128 31.0257C44.128 32.0384 43.9301 32.8992 43.485 33.6586C43.0894 34.4181 42.4959 34.9751 41.754 35.3294C41.0122 35.7346 40.1219 35.9371 39.1822 35.9371C38.6381 35.9371 38.1435 35.8358 37.649 35.6333C37.1543 35.4814 36.7092 35.1776 36.363 34.8232V40.089H33.4944V26.2156H35.9673L36.2147 27.3296C37.3027 26.4182 38.4897 25.9625 39.7262 25.9625C40.567 25.9625 41.3583 26.165 42.0013 26.6207ZM40.4187 32.8992C40.9132 32.4435 41.1605 31.8358 41.1605 31.0764C41.1605 30.3169 40.9132 29.7093 40.4681 29.203C40.023 28.6966 39.4295 28.4941 38.7865 28.4941C38.2425 28.4941 37.7478 28.5954 37.3522 28.8485C36.9565 29.0511 36.6598 29.4055 36.4125 29.8612V32.1396C36.5608 32.5954 36.8576 32.9497 37.2039 33.203C37.5995 33.4561 38.0446 33.608 38.5887 33.608C39.3305 33.608 39.924 33.3548 40.4187 32.8992Z" fill="black" fill-opacity="0.8"/>
<path d="M45.8095 28.3917C46.2547 27.6829 46.8481 27.0753 47.6394 26.6702C48.4307 26.2652 49.3211 26.012 50.3102 26.012C51.2994 26.012 52.1896 26.2145 52.9809 26.6702C53.7228 27.0753 54.3164 27.6829 54.7615 28.4424C55.2066 29.2019 55.4044 30.012 55.4044 30.974C55.4044 31.936 55.2066 32.7462 54.7615 33.5056C54.3164 34.2651 53.7723 34.8727 52.9809 35.2778C52.239 35.6828 51.2994 35.936 50.3102 35.936C49.3211 35.936 48.4307 35.7335 47.6394 35.3285C46.8481 34.9233 46.2547 34.3664 45.8095 33.6069C45.4138 32.8474 45.1665 31.9866 45.1665 30.974C45.1665 30.012 45.4138 29.1512 45.8095 28.3917ZM48.7276 32.7967C49.1232 33.3031 49.6673 33.5056 50.3102 33.5056C50.9532 33.5056 51.4972 33.2525 51.8929 32.7967C52.2886 32.3411 52.4864 31.6828 52.4864 30.974C52.4864 30.2146 52.2886 29.6069 51.8929 29.1512C51.4477 28.6449 50.9532 28.3917 50.2608 28.3917C49.6178 28.3917 49.1232 28.6449 48.6781 29.1006C48.2824 29.6069 48.0846 30.2146 48.0846 30.974C48.0846 31.6828 48.2824 32.2905 48.7276 32.7967Z" fill="black" fill-opacity="0.8"/>
<path d="M60.0538 19.0254V35.6835H57.1852V19.0254H60.0538Z" fill="black" fill-opacity="0.8"/>
<path d="M71.8245 26.4681L65.9884 40.1388H63.2188L65.3949 35.2275L61.2405 26.4681H64.5047L66.8787 31.9364L69.2527 26.4681H71.8245Z" fill="black" fill-opacity="0.8"/>
<path d="M82.8039 26.4677V35.6827C82.8039 36.5435 82.5566 37.3537 82.062 38.0626C81.5675 38.7714 80.9244 39.3284 80.0836 39.7334C79.2429 40.1385 78.3527 40.3409 77.3635 40.3409C76.6216 40.3409 75.9787 40.2397 75.4346 40.0878C74.8905 39.8853 74.4454 39.6827 74.0992 39.4803C73.7036 39.227 73.308 38.9232 72.8628 38.5182L74.5444 36.4929C74.9401 36.898 75.3852 37.2018 75.7808 37.4043C76.1765 37.6068 76.7206 37.7587 77.3141 37.7587C78.0559 37.7587 78.6494 37.5562 79.144 37.2018C79.6385 36.8473 79.8858 36.2904 79.8858 35.6322V34.3157C79.5891 34.7714 79.1934 35.1765 78.5999 35.4803C78.0064 35.7841 77.3141 35.936 76.5227 35.936C75.7314 35.936 74.9401 35.7334 74.2476 35.2777C73.5552 34.8726 73.0112 34.2651 72.5661 33.5056C72.1704 32.7461 71.9231 31.936 71.9231 31.0247C71.9231 30.1132 72.121 29.2525 72.5661 28.493C73.0112 27.7335 73.5552 27.1259 74.297 26.6702C74.9895 26.2145 75.7314 26.012 76.5227 26.012C77.2645 26.012 77.9075 26.1133 78.501 26.3158C79.0945 26.5183 79.5397 26.8221 79.8364 27.1766L80.1332 26.4677H82.8039ZM79.8858 32.1386V29.8601C79.688 29.4044 79.3913 29.05 78.9462 28.7968C78.501 28.5436 78.0064 28.3917 77.4129 28.3917C76.7206 28.3917 76.1271 28.6449 75.6324 29.1006C75.1379 29.5563 74.8905 30.1639 74.8905 30.9233C74.8905 31.6322 75.1379 32.2905 75.6324 32.7967C76.1271 33.303 76.7206 33.5563 77.4129 33.5563C78.5505 33.5056 79.3913 33.0499 79.8858 32.1386Z" fill="black" fill-opacity="0.8"/>
<path d="M85.1787 28.3928C85.6238 27.6334 86.2173 27.0764 87.0086 26.6207C87.7999 26.2156 88.6902 25.9625 89.6794 25.9625C90.6686 25.9625 91.5588 26.165 92.3501 26.6207C93.092 27.0258 93.6855 27.6334 94.1306 28.3928C94.5263 29.1523 94.7736 29.9624 94.7736 30.9245C94.7736 31.8865 94.5757 32.6966 94.1306 33.4561C93.735 34.2155 93.1415 34.8232 92.3501 35.2282C91.6082 35.6333 90.6686 35.8864 89.6794 35.8864C88.6902 35.8864 87.7999 35.6839 87.0086 35.2789C86.2173 34.8737 85.6238 34.3168 85.1787 33.5574C84.7336 32.7978 84.5357 31.9371 84.5357 30.8738C84.5357 30.0131 84.7336 29.1523 85.1787 28.3928ZM88.0473 32.7978C88.443 33.3042 88.9869 33.5067 89.6299 33.5067C90.2729 33.5067 90.8169 33.2535 91.2126 32.7978C91.6082 32.3421 91.8061 31.6839 91.8061 30.9751C91.8061 30.2156 91.6082 29.608 91.2126 29.1523C90.8169 28.6966 90.2729 28.4435 89.6299 28.4435C88.9869 28.4435 88.4924 28.6966 88.0473 29.1523C87.6021 29.608 87.4043 30.2662 87.4043 30.9751C87.4538 31.6839 87.6516 32.2915 88.0473 32.7978Z" fill="black" fill-opacity="0.8"/>
<path d="M104.913 26.7715C105.507 27.2778 105.753 27.936 105.802 28.7462V35.6828H102.885V29.8601C102.835 28.9487 102.39 28.493 101.549 28.493C100.906 28.493 100.362 28.7968 99.9668 29.455C99.5711 30.1132 99.3733 30.9234 99.3733 31.8854V35.6828H96.5046V26.4677H99.1259L99.3237 27.936C99.67 27.3285 100.115 26.8728 100.709 26.5183C101.302 26.1639 101.995 26.012 102.786 26.012C103.626 26.012 104.368 26.2652 104.913 26.7715Z" fill="black" fill-opacity="0.8"/>
<path d="M21.2284 26.3164C20.7338 26.0126 20.0908 26.0126 19.5469 26.3164L15.6891 28.6455L13.0678 30.1645L9.21006 32.4935C8.71548 32.7973 8.07252 32.7973 7.52848 32.4935L4.46208 30.6707C3.96749 30.3669 3.62129 29.81 3.62129 29.2024V25.6075C3.62129 24.9999 3.91804 24.443 4.46208 24.1392L7.47902 22.3671C7.97361 22.0633 8.61656 22.0633 9.1606 22.3671L12.1776 24.1392C12.6721 24.443 13.0183 24.9999 13.0183 25.6075V27.9366L15.6396 26.367V24.0379C15.6396 23.4303 15.3429 22.8734 14.7989 22.5696L9.21006 19.2278C8.71548 18.9241 8.07252 18.9241 7.52848 19.2278L1.84079 22.5696C1.29675 22.8734 1 23.4303 1 24.0379V30.772C1 31.3796 1.29675 31.9366 1.84079 32.2404L7.52848 35.5821C8.02306 35.8859 8.66603 35.8859 9.21006 35.5821L13.0678 33.3036L15.6891 31.734L19.5469 29.4556C20.0414 29.1518 20.6843 29.1518 21.2284 29.4556L24.2454 31.2277C24.7399 31.5315 25.0861 32.0885 25.0861 32.6961V36.2909C25.0861 36.8986 24.7894 37.4555 24.2454 37.7593L21.2284 39.5821C20.7338 39.8858 20.0908 39.8858 19.5469 39.5821L16.5299 37.8099C16.0353 37.5061 15.6891 36.9491 15.6891 36.3416V34.0125L13.0678 35.5821V37.9111C13.0678 38.5187 13.3646 39.0757 13.9085 39.3795L19.5963 42.7212C20.0908 43.025 20.7338 43.025 21.2778 42.7212L26.9656 39.3795C27.4601 39.0757 27.8064 38.5187 27.8064 37.9111V31.177C27.8064 30.5695 27.5096 30.0126 26.9656 29.7088L21.2284 26.3164Z" fill="#8247E5"/>
</svg>
